<?xml version="1.0" encoding="iso-8859-1"?>
<!-- Uploaded to: SVG Repo, www.svgrepo.com, Generator: SVG Repo Mixer Tools -->
<!DOCTYPE svg PUBLIC "-//W3C//DTD SVG 1.1//EN" "http://www.w3.org/Graphics/SVG/1.1/DTD/svg11.dtd">
<svg fill="#000000" height="800px" width="800px" version="1.1" id="Capa_1" xmlns="http://www.w3.org/2000/svg" xmlns:xlink="http://www.w3.org/1999/xlink" 
	 viewBox="0 0 469.094 469.094" xml:space="preserve">
<path d="M353.845,234.549l111.323-111.324c5.235-5.234,5.235-13.706,0-18.939l-28.174-28.177c-5.233-5.233-13.707-5.233-18.939,0
	L306.73,187.435l-25.07-25.062L392.985,51.049c5.233-5.233,5.233-13.707,0-18.94L364.809,3.933c-5.232-5.233-13.705-5.233-18.939,0
	L234.545,115.258L123.221,3.926c-2.509-2.509-5.914-3.921-9.471-3.921c-3.555,0-6.961,1.412-9.469,3.921L76.105,32.1
	c-5.233,5.233-5.233,13.707,0,18.94l111.325,111.332l-25.054,25.054L51.054,76.1c-5.233-5.232-13.707-5.232-18.939,0L3.922,104.277
	C1.412,106.785,0,110.19,0,113.746c0,3.555,1.412,6.962,3.922,9.47l111.341,111.333L3.938,345.866
	c-5.233,5.233-5.233,13.705,0,18.938l28.177,28.185c2.508,2.508,5.913,3.919,9.469,3.919s6.961-1.412,9.471-3.919l111.323-111.326
	l25.054,25.053L76.105,418.041c-2.508,2.509-3.92,5.915-3.92,9.47c0,3.556,1.412,6.961,3.92,9.469l28.193,28.185
	c5.232,5.233,13.705,5.233,18.938,0l111.326-111.317l111.307,111.309c5.234,5.233,13.707,5.233,18.939,0l28.177-28.177
	c5.233-5.233,5.233-13.705,0-18.939L281.677,306.725l25.054-25.053l111.307,111.309c2.51,2.507,5.915,3.921,9.471,3.921
	c3.556,0,6.961-1.414,9.469-3.921l28.177-28.177c5.233-5.233,5.233-13.705,0-18.938L353.845,234.549z M234.545,259.603
	l-25.053-25.053l25.053-25.061l25.069,25.061L234.545,259.603z"/>
</svg>