<?xml version="1.0" encoding="utf-8"?>
<!-- Generator: Adobe Illustrator 25.0.1, SVG Export Plug-In . SVG Version: 6.00 Build 0)  -->
<svg version="1.0" id="katman_1" xmlns="http://www.w3.org/2000/svg" xmlns:xlink="http://www.w3.org/1999/xlink" x="0px" y="0px"
	 viewBox="0 0 133 92.5" style="enable-background:new 0 0 133 92.5;" xml:space="preserve">
<style type="text/css">
	.st0{fill-rule:evenodd;clip-rule:evenodd;fill:#1D1D1B;}
</style>
<path class="st0" d="M37.4,28.8c0-0.1-0.1-0.1-0.2,0l-2.9,5.1c0,0.1,0,0.1,0,0.1l3,5.3l7.9,14c0,0.1,0,0.1,0,0.2L41,58.3l-4.4,5.2
	c-0.1,0.1,0,0.2,0.1,0.2h6.6c0,0,0.1,0,0.1-0.1l8.2-9.5c0-0.1,0-0.1,0-0.2L37.4,28.8z M34.1,63.7C34.1,63.7,34.1,63.7,34.1,63.7
	l4.4-5.2c0.1-0.1,0-0.2-0.1-0.2h-4.8c0,0-0.1,0-0.1-0.1l-4.1-4.8c0-0.1,0-0.1,0-0.2l6.9-12.2c0-0.1,0-0.1,0-0.1l-2.8-5.1
	c0-0.1-0.2-0.1-0.2,0L23,54c0,0.1,0,0.1,0,0.2l8.2,9.5c0,0,0,0.1,0.1,0.1L34.1,63.7C34.1,63.8,34.1,63.7,34.1,63.7z M63.7,56.6
	c0,0.1,0.1,0.1,0.1,0.1h7.1c0.1,0,0.1,0.1,0.1,0.1v5c0,0.1,0,0.1-0.1,0.1h-7.2h-4.9c-0.1,0-0.1-0.1-0.1-0.1v-16c0,0,0-0.1,0-0.1
	l4.8-5.6c0.1-0.1,0.2-0.1,0.2,0.1V56.6z M77.9,62c0.1,0,0.1-0.1,0.1-0.1V46.6c0-0.1-0.1-0.2-0.2-0.1L73,52.1c0,0,0,0.1,0,0.1v9.7
	c0,0.1,0,0.1,0.1,0.1H77.9z M104,54.2l5.1,7.6c0,0.1,0,0.2-0.1,0.2h-5.3c0,0-0.1,0-0.1-0.1l-4-6.3c-0.1-0.1-0.2-0.1-0.2,0.1v1v5.1
	c0,0.1,0,0.1-0.1,0.1h-4.8c-0.1,0-0.1-0.1-0.1-0.1v-16c0,0,0-0.1,0-0.1l4.8-5.6c0.1-0.1,0.2-0.1,0.2,0.1v12.1c0,0.1,0.1,0.2,0.2,0.1
	l3.6-6.1c0,0,0-0.1,0.1-0.1h5.5c0.1,0,0.1,0.1,0.1,0.2L104,54C103.9,54.1,103.9,54.1,104,54.2z M79.6,58.8c1.1,2.3,3.3,3.5,6.5,3.5
	c3.1,0,6.4-1.4,6.4-5.2c0-3.8-3-4.5-5.3-5l0,0l-0.1,0C86,51.8,85,51.5,85,50.9c0-0.5,0.5-0.9,1.2-0.9c0.8,0,1.4,0.4,1.9,1.2
	c0,0.1,0.1,0.1,0.1,0.1l3.8-1.8c0.1,0,0.1-0.1,0-0.2C91,47.1,89,46,86.1,46c-4.1,0-5.9,2.6-5.9,5.1c0,3.5,3,4.3,5.2,4.9l0,0
	c1.3,0.3,2.2,0.6,2.2,1.3c0,0.4-0.2,1-1.5,1c-1.1,0-2-0.5-2.4-1.5c0-0.1-0.1-0.1-0.2-0.1l-3.9,2.1C79.6,58.7,79.6,58.8,79.6,58.8z"
	/>
</svg>
